<svg xmlns="http://www.w3.org/2000/svg" version="1.1" xmlns:xlink="http://www.w3.org/1999/xlink" width="512" height="512" x="0" y="0" viewBox="0 0 100 100" style="enable-background:new 0 0 512 512" xml:space="preserve" class=""><g><path d="M84.05 9.928h-68.1A10.87 10.87 0 0 0 5.092 20.786v45.622A10.87 10.87 0 0 0 15.95 77.267h16.178a17.2 17.2 0 0 1 14.854 8.577l2.152 3.728a1 1 0 0 0 .866.5 1 1 0 0 0 .866-.5l2.16-3.739a17.2 17.2 0 0 1 14.849-8.567H84.05a10.87 10.87 0 0 0 10.858-10.858V20.786A10.87 10.87 0 0 0 84.05 9.928zm8.858 56.48a8.868 8.868 0 0 1-8.858 8.859H67.875A19.2 19.2 0 0 0 51.3 84.833l-1.3 2.24-1.286-2.229a19.2 19.2 0 0 0-16.586-9.577H15.95a8.868 8.868 0 0 1-8.858-8.859V20.786a8.867 8.867 0 0 1 8.858-8.858h68.1a8.867 8.867 0 0 1 8.858 8.858zM71.245 15.43a18.162 18.162 0 1 0 18.162 18.161A18.182 18.182 0 0 0 71.245 15.43zm0 34.323a16.162 16.162 0 1 1 16.162-16.162 16.18 16.18 0 0 1-16.162 16.162zm4.343-7.653a1 1 0 0 1-1 1H67.9a1 1 0 0 1 0-2h2.344V29.931H67.9a1 1 0 0 1 0-2h3.344a1 1 0 0 1 1 1V41.1h2.343a1 1 0 0 1 1.001 1zm-6.31-16.532a1.484 1.484 0 1 1 1.483 1.483 1.483 1.483 0 0 1-1.483-1.484zm-56.459-.983a1 1 0 0 1 1-1h15.75a1 1 0 0 1 0 2h-15.75a1 1 0 0 1-1-1.001zm0 9.007a1 1 0 0 1 1-1h24.637a1 1 0 0 1 0 2H13.819a1 1 0 0 1-1-1.001zM48 42.6a1 1 0 0 1-1 1H13.819a1 1 0 0 1 0-2H47a1 1 0 0 1 1 1z" data-name="15" fill="none" opacity="1" data-original="#000000" class=""></path></g></svg>
