<svg xmlns="http://www.w3.org/2000/svg" version="1.1" xmlns:xlink="http://www.w3.org/1999/xlink" width="512" height="512" x="0" y="0" viewBox="0 0 32 32" style="enable-background:new 0 0 512 512" xml:space="preserve" class=""><g><path d="M15.546 16.482a4.86 4.86 0 0 0 3.579 1.41 3.635 3.635 0 0 1-6.732-1.614 3.543 3.543 0 0 1 1.65-3.375 4.909 4.909 0 0 0 1.503 3.58ZM25.13 16A9.123 9.123 0 0 1 16 25.131C3.885 24.658 3.885 7.342 16 6.87A9.123 9.123 0 0 1 25.131 16Zm-3.205.806a1.022 1.022 0 0 0-1.42-1.048 3.173 3.173 0 0 1-3.589-.675 3.204 3.204 0 0 1-.766-3.598 1.019 1.019 0 0 0-1.098-1.391 5.877 5.877 0 0 0-4.99 6.36c.472 6.81 10.557 7.72 11.863.352Zm-4.918-12.06V3.168a1.008 1.008 0 0 0-2.016 0v1.58a1.008 1.008 0 0 0 2.016 0Zm0 24.087v-1.58a1.008 1.008 0 0 0-2.016 0v1.58a1.008 1.008 0 0 0 2.016 0ZM24.67 8.755l1.117-1.116a1.008 1.008 0 0 0-1.425-1.426L23.245 7.33a1.008 1.008 0 0 0 1.425 1.425ZM7.638 25.787l1.117-1.117a1.008 1.008 0 0 0-1.425-1.425l-1.117 1.116a1.008 1.008 0 0 0 1.425 1.426ZM29.841 16a1.008 1.008 0 0 0-1.008-1.008h-1.58a1.008 1.008 0 0 0 0 2.016h1.58A1.008 1.008 0 0 0 29.84 16ZM5.754 16a1.008 1.008 0 0 0-1.008-1.008H3.167a1.008 1.008 0 0 0 0 2.016h1.58A1.008 1.008 0 0 0 5.753 16Zm20.034 9.787a1.008 1.008 0 0 0 0-1.426l-1.118-1.116a1.008 1.008 0 1 0-1.425 1.425l1.117 1.117a1.008 1.008 0 0 0 1.426 0ZM8.756 8.755a1.008 1.008 0 0 0 0-1.425L7.637 6.213A1.008 1.008 0 1 0 6.213 7.64L7.33 8.755a1.008 1.008 0 0 0 1.426 0Z" fill="none" opacity="1" data-original="#000000" class=""></path></g></svg>
